<?xml version="1.0" encoding="iso-8859-1"?>
<!-- Generator: Adobe Illustrator 18.1.1, SVG Export Plug-In . SVG Version: 6.00 Build 0)  -->
<svg version="1.1" id="Capa_1" xmlns="http://www.w3.org/2000/svg" xmlns:xlink="http://www.w3.org/1999/xlink" x="0px" y="0px"
	 viewBox="0 0 82 82" style="enable-background:new 0 0 82 82;" xml:space="preserve">
<g id="_x37_7_Essential_Icons_7_">
	<path id="Camera" d="M41,24.9c-10.5,0-19,8.5-19,19s8.5,19,19,19s19-8.5,19-19C60,33.5,51.5,24.9,41,24.9z M41,58.9
		c-8.3,0-15-6.7-15-15s6.7-15,15-15s15,6.7,15,15S49.3,58.9,41,58.9z M74,20.9L59,21l-6.3-9.2c-0.4-0.5-1-0.8-1.6-0.8H30.9
		c-0.6,0-1.2,0.3-1.6,0.8L23,21H8c-4.4,0-8,3.5-8,7.9V63c0,4.4,3.6,8,8,8h66c4.4,0,8-3.6,8-8V28C82,23.6,78.4,20.9,74,20.9z M78,63
		c0,2.2-1.8,4-4,4H8c-2.2,0-4-1.8-4-4V28.9C4,26.7,5.8,25,8,25h16c0.6,0,1.2-0.3,1.6-0.8l6.3-9.2h18.2l6.3,9.2
		c0.4,0.5,1,0.8,1.6,0.8l16-0.1c2.2,0,4,0.9,4,3.1V63z"/>
</g>
<g>
</g>
<g>
</g>
<g>
</g>
<g>
</g>
<g>
</g>
<g>
</g>
<g>
</g>
<g>
</g>
<g>
</g>
<g>
</g>
<g>
</g>
<g>
</g>
<g>
</g>
<g>
</g>
<g>
</g>
</svg>
