<?xml version="1.0" encoding="utf-8"?>
<!-- Generator: Adobe Illustrator 17.0.0, SVG Export Plug-In . SVG Version: 6.00 Build 0)  -->
<!DOCTYPE svg PUBLIC "-//W3C//DTD SVG 1.1//EN" "http://www.w3.org/Graphics/SVG/1.1/DTD/svg11.dtd">
<svg version="1.1" id="Layer_1" xmlns="http://www.w3.org/2000/svg" xmlns:xlink="http://www.w3.org/1999/xlink" x="0px" y="0px"
	 width="170px" height="30px" viewBox="0 0 170 30" enable-background="new 0 0 170 30" xml:space="preserve">
<g>
	<path fill="#FFFFFF" d="M13.006,9.739H8.274v12.869H5.092V9.739H0.424V7.161h12.582V9.739z"/>
	<path fill="#FFFFFF" d="M27.211,15.234c0,1.521-0.269,2.854-0.807,3.999c-0.537,1.146-1.307,2.03-2.307,2.652
		c-1.001,0.623-2.148,0.934-3.442,0.934c-1.28,0-2.423-0.308-3.427-0.923c-1.004-0.615-1.782-1.494-2.334-2.637
		c-0.552-1.142-0.831-2.456-0.838-3.94v-0.764c0-1.521,0.274-2.859,0.822-4.015c0.548-1.156,1.323-2.044,2.323-2.663
		c1.001-0.619,2.145-0.928,3.432-0.928s2.431,0.31,3.432,0.928c1,0.619,1.775,1.507,2.323,2.663
		c0.548,1.156,0.822,2.491,0.822,4.005V15.234z M23.986,14.534c0-1.62-0.29-2.85-0.87-3.692S21.709,9.58,20.634,9.58
		c-1.068,0-1.892,0.416-2.472,1.246c-0.58,0.832-0.874,2.049-0.881,3.655v0.753c0,1.577,0.29,2.801,0.87,3.67
		c0.58,0.87,1.415,1.306,2.504,1.306c1.068,0,1.888-0.419,2.461-1.258c0.573-0.838,0.863-2.06,0.87-3.665V14.534z"/>
	<path fill="#FFFFFF" d="M37.533,18.555c0-0.602-0.212-1.063-0.636-1.385c-0.424-0.321-1.188-0.661-2.292-1.019
		c-1.104-0.356-1.977-0.708-2.621-1.055c-1.754-0.947-2.631-2.224-2.631-3.83c0-0.834,0.235-1.579,0.706-2.233
		c0.47-0.654,1.146-1.166,2.026-1.533c0.88-0.368,1.869-0.552,2.965-0.552c1.104,0,2.086,0.2,2.949,0.6s1.533,0.964,2.01,1.692
		c0.478,0.729,0.716,1.556,0.716,2.482h-3.183c0-0.707-0.223-1.257-0.668-1.649c-0.445-0.393-1.071-0.589-1.877-0.589
		c-0.778,0-1.383,0.165-1.814,0.493c-0.431,0.329-0.647,0.762-0.647,1.3c0,0.502,0.253,0.923,0.758,1.262
		c0.506,0.34,1.25,0.658,2.233,0.955c1.811,0.544,3.129,1.22,3.957,2.026c0.828,0.806,1.241,1.81,1.241,3.012
		c0,1.337-0.506,2.386-1.517,3.146c-1.011,0.761-2.373,1.141-4.084,1.141c-1.188,0-2.27-0.217-3.246-0.652
		c-0.976-0.435-1.721-1.03-2.233-1.788c-0.513-0.756-0.769-1.634-0.769-2.631h3.193c0,1.705,1.019,2.557,3.055,2.557
		c0.757,0,1.348-0.153,1.772-0.461S37.533,19.106,37.533,18.555z"/>
	<path fill="#FFFFFF" d="M55.452,22.607h-3.183v-6.62h-6.206v6.62H42.88V7.161h3.183v6.259h6.206V7.161h3.183V22.607z"/>
	<path fill="#FFFFFF" d="M61.615,22.607h-3.183V7.161h3.183V22.607z"/>
	<path fill="#FFFFFF" d="M64.564,22.607V7.161h5.411c1.874,0,3.296,0.359,4.265,1.077c0.969,0.718,1.454,1.77,1.454,3.156
		c0,0.757-0.195,1.423-0.583,2c-0.389,0.577-0.93,0.999-1.623,1.268c0.792,0.198,1.416,0.598,1.872,1.199
		c0.457,0.601,0.685,1.336,0.685,2.206c0,1.485-0.474,2.61-1.422,3.374s-2.298,1.153-4.052,1.167H64.564z M67.748,13.632h2.355
		c1.605-0.028,2.408-0.668,2.408-1.92c0-0.7-0.204-1.204-0.61-1.512c-0.407-0.308-1.049-0.462-1.926-0.462h-2.228V13.632z
		 M67.748,15.881v4.169h2.726c0.75,0,1.335-0.179,1.756-0.536s0.631-0.851,0.631-1.479c0-1.415-0.732-2.132-2.196-2.154H67.748z"/>
	<path fill="#FFFFFF" d="M87.151,19.425h-5.581l-1.061,3.183h-3.384l5.75-15.446h2.949l5.783,15.446h-3.385L87.151,19.425z
		 M82.43,16.847h3.862l-1.942-5.782L82.43,16.847z"/>
	<path fill="#FFFFFF" d="M113.758,6.555l-1.169,5.081h-0.416l-0.047-1.273c-0.038-0.463-0.127-0.875-0.266-1.238
		c-0.14-0.362-0.348-0.677-0.625-0.943c-0.278-0.267-0.629-0.475-1.054-0.625c-0.424-0.151-0.895-0.226-1.412-0.226
		c-1.381,0-2.588,0.378-3.622,1.134c-1.319,0.965-2.354,2.326-3.102,4.085c-0.617,1.451-0.926,2.92-0.926,4.409
		c0,1.521,0.443,2.733,1.331,3.641c0.887,0.906,2.041,1.359,3.46,1.359c1.072,0,2.027-0.238,2.864-0.717
		c0.838-0.479,1.615-1.216,2.332-2.211h0.544c-0.849,1.35-1.79,2.344-2.823,2.98c-1.034,0.636-2.272,0.954-3.715,0.954
		c-1.281,0-2.415-0.268-3.403-0.804c-0.987-0.536-1.739-1.291-2.257-2.263c-0.517-0.973-0.775-2.018-0.775-3.137
		c0-1.712,0.459-3.379,1.378-5c0.918-1.62,2.178-2.893,3.778-3.819c1.601-0.926,3.216-1.389,4.844-1.389
		c0.764,0,1.62,0.182,2.569,0.544c0.416,0.155,0.717,0.231,0.902,0.231s0.347-0.038,0.486-0.116c0.139-0.077,0.37-0.297,0.694-0.66
		H113.758z"/>
	<path fill="#FFFFFF" d="M124.012,12.134l-2.257,7.847l-0.255,1.053c-0.023,0.101-0.034,0.186-0.034,0.255
		c0,0.123,0.038,0.231,0.115,0.324c0.062,0.069,0.139,0.104,0.231,0.104c0.101,0,0.231-0.062,0.394-0.185
		c0.301-0.224,0.702-0.687,1.204-1.389l0.393,0.277c-0.532,0.803-1.08,1.414-1.643,1.835c-0.563,0.42-1.084,0.63-1.563,0.63
		c-0.332,0-0.581-0.083-0.747-0.248c-0.166-0.166-0.248-0.407-0.248-0.724c0-0.378,0.084-0.876,0.254-1.493l0.243-0.868
		c-1.011,1.319-1.94,2.242-2.789,2.767c-0.609,0.378-1.208,0.566-1.794,0.566c-0.563,0-1.049-0.233-1.458-0.7
		c-0.409-0.466-0.613-1.108-0.613-1.927c0-1.227,0.368-2.521,1.105-3.883c0.736-1.361,1.672-2.451,2.806-3.269
		c0.888-0.648,1.725-0.972,2.512-0.972c0.471,0,0.862,0.124,1.175,0.37c0.313,0.247,0.55,0.656,0.712,1.227l0.416-1.319
		L124.012,12.134z M119.892,12.735c-0.494,0-1.019,0.231-1.574,0.694c-0.787,0.656-1.487,1.628-2.101,2.916
		c-0.613,1.289-0.92,2.454-0.92,3.495c0,0.525,0.131,0.94,0.394,1.245c0.262,0.305,0.563,0.457,0.902,0.457
		c0.841,0,1.756-0.621,2.743-1.864c1.319-1.65,1.979-3.344,1.979-5.08c0-0.656-0.128-1.13-0.383-1.423
		C120.679,12.882,120.331,12.735,119.892,12.735z"/>
	<path fill="#FFFFFF" d="M125.979,12.782l3.993-0.648l-1.667,5.624c1.351-2.307,2.577-3.919,3.681-4.837
		c0.625-0.524,1.134-0.787,1.527-0.787c0.255,0,0.455,0.075,0.602,0.226s0.22,0.369,0.22,0.654c0,0.509-0.131,0.995-0.393,1.458
		c-0.186,0.347-0.452,0.521-0.799,0.521c-0.178,0-0.33-0.058-0.457-0.173c-0.128-0.116-0.207-0.293-0.237-0.533
		c-0.016-0.146-0.051-0.243-0.104-0.289c-0.062-0.062-0.135-0.093-0.22-0.093c-0.132,0-0.255,0.031-0.37,0.093
		c-0.201,0.108-0.506,0.409-0.915,0.903c-0.64,0.756-1.334,1.736-2.083,2.939c-0.324,0.51-0.602,1.084-0.833,1.725
		c-0.324,0.88-0.509,1.408-0.556,1.586l-0.37,1.458h-1.771l2.141-7.187c0.247-0.833,0.37-1.427,0.37-1.782
		c0-0.139-0.058-0.254-0.173-0.347c-0.154-0.124-0.359-0.185-0.613-0.185c-0.162,0-0.46,0.035-0.892,0.104L125.979,12.782z"/>
	<path fill="#FFFFFF" d="M135.203,12.782l3.993-0.648l-1.667,5.624c1.351-2.307,2.577-3.919,3.681-4.837
		c0.625-0.524,1.134-0.787,1.527-0.787c0.255,0,0.455,0.075,0.602,0.226s0.22,0.369,0.22,0.654c0,0.509-0.131,0.995-0.393,1.458
		c-0.186,0.347-0.452,0.521-0.799,0.521c-0.178,0-0.33-0.058-0.457-0.173c-0.128-0.116-0.207-0.293-0.237-0.533
		c-0.016-0.146-0.051-0.243-0.104-0.289c-0.062-0.062-0.135-0.093-0.22-0.093c-0.132,0-0.255,0.031-0.37,0.093
		c-0.201,0.108-0.506,0.409-0.915,0.903c-0.64,0.756-1.334,1.736-2.083,2.939c-0.324,0.51-0.602,1.084-0.833,1.725
		c-0.324,0.88-0.509,1.408-0.556,1.586l-0.37,1.458h-1.771l2.141-7.187c0.247-0.833,0.37-1.427,0.37-1.782
		c0-0.139-0.058-0.254-0.173-0.347c-0.154-0.124-0.359-0.185-0.613-0.185c-0.162,0-0.46,0.035-0.892,0.104L135.203,12.782z"/>
	<path fill="#FFFFFF" d="M148.64,12.134l-2.292,8.112c-0.154,0.548-0.231,0.876-0.231,0.984c0,0.123,0.037,0.224,0.11,0.301
		s0.16,0.115,0.261,0.115c0.115,0,0.254-0.062,0.416-0.185c0.439-0.348,0.884-0.841,1.331-1.481l0.405,0.266
		c-0.525,0.803-1.143,1.478-1.852,2.025c-0.525,0.409-1.026,0.613-1.505,0.613c-0.316,0-0.575-0.094-0.775-0.283
		c-0.201-0.188-0.301-0.426-0.301-0.712c0-0.285,0.097-0.76,0.289-1.423l1.505-5.185c0.247-0.849,0.37-1.381,0.37-1.597
		c0-0.17-0.06-0.309-0.18-0.417c-0.119-0.108-0.283-0.162-0.491-0.162c-0.17,0-0.521,0.042-1.054,0.127v-0.451L148.64,12.134z
		 M148.489,7.539c0.324,0,0.598,0.112,0.821,0.335c0.224,0.224,0.336,0.498,0.336,0.822c0,0.316-0.114,0.588-0.342,0.816
		c-0.228,0.228-0.499,0.341-0.815,0.341s-0.589-0.113-0.816-0.341c-0.228-0.228-0.341-0.5-0.341-0.816
		c0-0.324,0.111-0.598,0.335-0.822C147.891,7.651,148.165,7.539,148.489,7.539z"/>
	<path fill="#FFFFFF" d="M152.598,18.244c-0.055,0.386-0.081,0.706-0.081,0.961c0,0.687,0.243,1.271,0.729,1.753
		c0.486,0.482,1.076,0.724,1.771,0.724c0.556,0,1.09-0.114,1.604-0.342c0.513-0.228,1.274-0.73,2.285-1.51l0.243,0.336
		c-1.828,1.813-3.572,2.719-5.23,2.719c-1.127,0-1.976-0.354-2.547-1.064c-0.57-0.71-0.856-1.492-0.856-2.35
		c0-1.149,0.355-2.326,1.065-3.529c0.71-1.204,1.601-2.139,2.673-2.807s2.176-1.001,3.311-1.001c0.817,0,1.423,0.166,1.816,0.498
		c0.394,0.332,0.591,0.725,0.591,1.181c0,0.64-0.255,1.253-0.764,1.84c-0.672,0.763-1.659,1.381-2.963,1.851
		C155.379,17.82,154.163,18.066,152.598,18.244z M152.679,17.677c1.142-0.131,2.071-0.354,2.789-0.671
		c0.948-0.425,1.66-0.932,2.135-1.522c0.475-0.59,0.712-1.151,0.712-1.684c0-0.324-0.103-0.586-0.307-0.787
		s-0.496-0.301-0.874-0.301c-0.787,0-1.622,0.418-2.506,1.255C153.745,14.805,153.095,16.041,152.679,17.677z"/>
	<path fill="#FFFFFF" d="M161.532,12.782l3.993-0.648l-1.667,5.624c1.351-2.307,2.577-3.919,3.681-4.837
		c0.625-0.524,1.134-0.787,1.527-0.787c0.255,0,0.455,0.075,0.602,0.226s0.22,0.369,0.22,0.654c0,0.509-0.131,0.995-0.393,1.458
		c-0.186,0.347-0.452,0.521-0.799,0.521c-0.178,0-0.33-0.058-0.457-0.173c-0.128-0.116-0.207-0.293-0.237-0.533
		c-0.016-0.146-0.051-0.243-0.104-0.289c-0.062-0.062-0.135-0.093-0.22-0.093c-0.132,0-0.255,0.031-0.37,0.093
		c-0.201,0.108-0.506,0.409-0.915,0.903c-0.64,0.756-1.334,1.736-2.083,2.939c-0.324,0.51-0.602,1.084-0.833,1.725
		c-0.324,0.88-0.509,1.408-0.556,1.586l-0.37,1.458h-1.771l2.141-7.187c0.247-0.833,0.37-1.427,0.37-1.782
		c0-0.139-0.058-0.254-0.173-0.347c-0.154-0.124-0.359-0.185-0.613-0.185c-0.162,0-0.46,0.035-0.892,0.104L161.532,12.782z"/>
</g>
</svg>
